<svg width="126" height="126" viewBox="0 0 126 126" fill="none" xmlns="http://www.w3.org/2000/svg">
<mask id="path-1-inside-1_145_41" fill="white">
<path d="M15.7183 86.555C15.7183 76.0935 20.7398 66.0605 29.6782 58.6632C38.6165 51.2658 50.7395 47.11 63.3803 47.11C76.021 47.11 88.144 51.2658 97.0824 58.6632C106.021 66.0605 111.042 76.0935 111.042 86.555L63.3803 86.555L15.7183 86.555Z"/>
</mask>
<path d="M15.7183 86.555C15.7183 76.0935 20.7398 66.0605 29.6782 58.6632C38.6165 51.2658 50.7395 47.11 63.3803 47.11C76.021 47.11 88.144 51.2658 97.0824 58.6632C106.021 66.0605 111.042 76.0935 111.042 86.555L63.3803 86.555L15.7183 86.555Z" stroke="#FF7400" stroke-width="8" mask="url(#path-1-inside-1_145_41)"/>
<path d="M67.7183 41.7597C67.7183 43.2725 66.0902 45.11 63.2535 45.11C60.4169 45.11 58.7888 43.2725 58.7888 41.7597C58.7888 40.2469 60.4169 38.4095 63.2535 38.4095C66.0902 38.4095 67.7183 40.2469 67.7183 41.7597Z" stroke="#FF7400" stroke-width="4"/>
<line y1="84.555" x2="126" y2="84.555" stroke="#FF7400" stroke-width="4"/>
<path d="M38.7887 17.9459C43.3802 20.4972 49.8084 28.3446 38.7887 32.9898C27.7691 37.6349 34.1972 43.8109 38.7887 47.11" stroke="#FF7400" stroke-width="4"/>
<path d="M87.2113 17.9459C91.8028 20.4972 98.2309 28.3446 87.2113 32.9898C76.1916 37.6349 82.6198 43.8109 87.2113 47.11" stroke="#FF7400" stroke-width="4"/>
<path d="M63.5071 2C68.5769 4.77157 75.6746 13.2965 63.5071 18.3427C51.3396 23.3889 58.4373 30.098 63.5071 33.6819" stroke="#FF7400" stroke-width="4"/>
</svg>
